<?xml version="1.0" standalone="no"?>
<!DOCTYPE svg PUBLIC "-//W3C//DTD SVG 20010904//EN"
 "http://www.w3.org/TR/2001/REC-SVG-20010904/DTD/svg10.dtd">
<svg version="1.0" xmlns="http://www.w3.org/2000/svg"
 width="474.000000pt" height="474.000000pt" viewBox="0 0 474.000000 474.000000"
 preserveAspectRatio="xMidYMid meet">

<g transform="translate(0.000000,474.000000) scale(0.100000,-0.100000)"
fill="#000000" stroke="none">
<path d="M2140 4729 c-140 -15 -300 -47 -429 -84 -802 -231 -1430 -878 -1636
-1689 -54 -215 -69 -342 -69 -586 0 -244 15 -371 69 -586 213 -837 872 -1496
1709 -1709 215 -54 342 -69 586 -69 244 0 371 15 586 69 837 213 1496 872
1709 1709 54 215 69 342 69 586 0 244 -15 371 -69 586 -213 837 -872 1496
-1709 1709 -72 18 -183 41 -246 50 -135 20 -448 28 -570 14z m560 -1247 c172
-299 314 -552 317 -562 3 -12 -29 -78 -87 -180 -75 -129 -95 -159 -105 -148
-7 7 -110 184 -230 393 -120 209 -221 384 -225 388 -6 7 -270 -439 -270 -456
0 -3 31 -59 68 -124 38 -65 112 -192 164 -283 555 -963 670 -1164 675 -1176 4
-12 -84 -14 -627 -12 l-633 3 -93 160 c-51 88 -90 163 -86 167 4 4 199 9 434
10 l426 3 -355 615 c-195 338 -357 621 -360 627 -3 7 68 140 158 295 89 156
230 400 312 543 193 336 176 310 191 294 7 -8 154 -258 326 -557z m-1086
-1100 l88 -152 -263 -455 -262 -455 -194 0 c-107 0 -193 4 -191 8 2 5 162 284
357 621 282 487 356 610 366 599 6 -7 51 -82 99 -166z m1975 -446 c193 -335
351 -610 351 -612 0 -2 -87 -4 -193 -4 l-194 0 -261 454 -262 455 91 158 c50
87 94 162 96 166 3 5 9 5 13 0 5 -4 166 -282 359 -617z"/>
</g>
</svg>
